<svg width="120" height="120" xmlns="http://www.w3.org/2000/svg" data-bbox="48.00000013388633 204.56770425383903 104.31305309362538 105.41907984086893" class="fl-svgdocument">
 <g>
  <title>Layer 1</title>
  <path stroke="null" d="m54.61316,72.29295l4.0703,-26.90619q0.18786,-1.45082 2.34825,-1.45082q2.16039,0 2.41087,1.45082l0,0l4.13292,26.90619q0.37572,2.76976 1.34633,3.95679q0.97061,1.18704 3.22493,1.18704q2.25432,0 3.03707,-1.12109q0.78275,-1.12109 1.28371,-4.02274l0,0l4.6965,-29.61q0.25048,-1.51677 2.63004,-1.51677q2.37956,0 2.37956,1.18704l0,0l-4.82175,30.66515q-0.75144,4.8141 -2.66135,6.92439q-1.90991,2.11029 -6.57511,2.11029q-4.66519,0 -6.63773,-2.11029q-1.97253,-2.11029 -2.53611,-6.92439l0,0l-1.5655,-13.65094l-0.6262,0l-1.50288,13.65094q-0.56358,4.8141 -2.53611,6.92439q-1.97253,2.11029 -6.63773,2.11029q-4.66519,0 -6.57511,-2.11029q-1.90991,-2.11029 -2.66135,-6.92439l0,0l-4.82175,-30.66515q0,-1.18704 2.37956,-1.18704q2.37956,0 2.63004,1.51677l0,0l4.6965,29.61q0.50096,2.90165 1.28371,4.02274q0.78275,1.12109 3.03707,1.12109q2.25432,0 3.22493,-1.18704q0.97061,-1.18704 1.34633,-3.95679l0,0z" data-uid="o_en4dfkgcf_5" y="0" x="0" font-scale="contain" font-family="Offside" space="preserve" dy="0" dx="0" offset="0" side="left" letter-spacing="0" font-size="100" text-anchor="start" text="w" fill="#172b2b" id="_1QTd3wo_sWXn34LSqHfIq"/>
  <g data-uid="o_en4dfkgcf_6" transform="matrix(0.811403 0 0 0.811403 48.562 48.2809)" id="_UnGaE1vwjOuJLzNs4BCBI">
   <path data-uid="o_en4dfkgcf_7" fill="#d95b2e" d="m77.86938,14.81204c0,-0.00139 0,-0.00277 0,-0.00554c0,-0.8755 -0.37126,-1.74961 -0.97662,-2.38822c-0.94338,-0.90874 -2.42147,-1.21074 -3.66684,-0.70649c-0.4045,0.16762 -0.77576,0.4045 -1.111,0.70649c-0.60398,0.63861 -0.97524,1.51273 -0.97524,2.38822c0,0.01939 0.00554,0.0374 0.00554,0.0568c-0.02771,31.68968 -25.8147,57.46005 -57.50992,57.46005l0,0.04156c-0.8755,0.00277 -1.75238,0.32139 -2.38822,0.95723c-0.60675,0.60398 -0.97662,1.47809 -0.97662,2.35636c0,0.90736 0.33524,1.74822 0.97662,2.38822c0.63861,0.63723 1.48086,0.97662 2.38822,0.97662l0,0.0097c35.42301,0 64.241,-28.81799 64.241,-64.241l-0.00693,0z" id="_-ixtcTtqQw2bTqkFRNNwg"/>
   <path data-uid="o_en4dfkgcf_8" fill="#3bad67" d="m-31.68891,55.39859c-1.31325,1.31048 -1.31325,3.42995 0,4.74182c0.67186,0.64138 1.51273,0.97662 2.38822,0.97662c0.84087,0 1.71498,-0.33524 2.38961,-0.97662c1.27861,-1.31048 1.27861,-3.43134 0,-4.74182c-1.34511,-1.31463 -3.46736,-1.31463 -4.77783,0z" id="_pQ7fFyXDN--B4bq4tkzct"/>
   <path data-uid="o_en4dfkgcf_9" fill="#3bad67" d="m-0.7379,71.1477c-1.78286,-0.47377 -3.63498,0.60398 -4.10597,2.38822c-0.50424,1.78147 0.57351,3.63498 2.35636,4.13645c0.30199,0.06926 0.60675,0.10251 0.8755,0.10251c1.48086,0 2.85922,-1.00848 3.26372,-2.49073c0.471,-1.8161 -0.60675,-3.63359 -2.38961,-4.13645z" id="_dspI2JXDHAXBXqX9Q5vzG"/>
   <path data-uid="o_en4dfkgcf_10" fill="#3bad67" d="m-13.77136,64.55059c-1.61524,-0.91013 -3.66684,-0.37126 -4.61021,1.24537c-0.90736,1.61385 -0.36987,3.66684 1.24537,4.60744c0.53887,0.30615 1.111,0.44052 1.68173,0.44052c1.14563,0 2.28848,-0.60814 2.92848,-1.68173c0.90874,-1.61801 0.36987,-3.67238 -1.24537,-4.6116z" id="_2qb_rkwKZnE3VM86JAbsE"/>
   <path data-uid="o_en4dfkgcf_11" fill="#3bad67" d="m-40.68639,42.38614c-1.61524,0.93922 -2.15273,2.99359 -1.24398,4.61021c0.03325,0 0.03325,0 0.03325,0c0.60675,1.07498 1.74961,1.68173 2.89385,1.68173c0.57351,0 1.14563,-0.13437 1.68312,-0.47377c1.61662,-0.90736 2.15411,-2.96034 1.24537,-4.5742c-0.94199,-1.61524 -2.99498,-2.15411 -4.6116,-1.24398z" id="_g5vYrJHOsAKL7hVVi1Qc6"/>
   <path data-uid="o_en4dfkgcf_12" fill="#3bad67" d="m-41.29279,30.57358c-0.50424,-1.78424 -2.32173,-2.86199 -4.13922,-2.35636c-1.78286,0.46961 -2.8606,2.32312 -2.35498,4.10459c0.40312,1.5155 1.74822,2.49073 3.23047,2.49073c0.30199,0 0.57212,-0.03325 0.87411,-0.10251c1.78424,-0.46822 2.8606,-2.31896 2.38961,-4.13645z" id="_uLJozuwtP6HTTVkwVH-UH"/>
   <path data-uid="o_en4dfkgcf_13" fill="#3bad67" d="m-45.92974,18.11381c0.90874,0 1.74961,-0.33524 2.38961,-0.97662c0.60675,-0.63723 0.97524,-1.47809 0.97524,-2.38684c0,-0.00831 -0.00277,-0.01524 -0.00277,-0.02355c0.01524,-31.69799 25.80778,-57.48083 57.50992,-57.48083c0.20225,0 0.43636,-0.03463 0.67186,-0.06788c0.20225,-0.03463 0.4045,-0.10251 0.60675,-0.20225c0.20225,-0.06788 0.4045,-0.169 0.60675,-0.30338c0.16762,-0.13299 0.33524,-0.26736 0.50424,-0.40312c0.30199,-0.33662 0.53749,-0.70649 0.70649,-1.111c0.20225,-0.4045 0.27013,-0.84087 0.27013,-1.27861c0,-0.43913 -0.06788,-0.8755 -0.27013,-1.28c-0.169,-0.40312 -0.4045,-0.77437 -0.70649,-1.10961c-0.169,-0.13437 -0.33662,-0.27013 -0.50424,-0.4045c-0.20225,-0.13437 -0.4045,-0.23688 -0.60675,-0.30338c-0.20225,-0.09974 -0.4045,-0.16762 -0.60675,-0.20087c-0.22442,-0.03879 -0.44883,-0.04294 -0.67186,-0.04017l0,-0.02494c-35.42163,0 -64.23962,28.81799 -64.23962,64.23962l0.00416,0c0,0.43498 0.06788,0.87134 0.2355,1.27307c0.16762,0.40312 0.43636,0.77437 0.73974,1.10961c0.33662,0.30615 0.67325,0.53887 1.111,0.74251c0.40312,0.16762 0.83948,0.23273 1.27723,0.23273z" id="_Ip4rHySFXWoy3VpWHFJMT"/>
   <path data-uid="o_en4dfkgcf_14" fill="#d95b2e" d="m69.95005,0.4815c0.4045,1.5155 1.75099,2.49073 3.26372,2.49073c0.27013,0 0.57212,-0.03463 0.84087,-0.10251c1.81749,-0.50424 2.89524,-2.32173 2.38822,-4.13922c-0.46961,-1.78286 -2.32035,-2.85922 -4.10459,-2.38961c-1.8161,0.50701 -2.85783,2.3245 -2.38822,4.1406z" id="_HGwyy7ZnF539dP6BTXIPI"/>
   <path data-uid="o_en4dfkgcf_15" fill="#d95b2e" d="m67.67943,-12.27369c0.57212,0 1.14424,-0.13437 1.68312,-0.43913c1.61385,-0.94199 2.15273,-2.99359 1.21212,-4.60883c-0.91013,-1.61662 -2.9645,-2.15411 -4.57697,-1.24537c-1.61662,0.94199 -2.18874,2.99359 -1.24537,4.61021c0.64,1.07775 1.74822,1.68312 2.9271,1.68312z" id="_GcWvwr7qTZlPzNG8SiBCy"/>
   <path data-uid="o_en4dfkgcf_16" fill="#d95b2e" d="m29.3925,-40.09605c0.30199,0.06788 0.57212,0.10251 0.87411,0.10251c1.48225,0 2.82874,-0.97524 3.23047,-2.49073c0.47377,-1.78286 -0.57212,-3.63221 -2.35221,-4.10459c-1.81749,-0.50424 -3.67099,0.57212 -4.1406,2.38822c-0.46961,1.78286 0.60398,3.63359 2.38822,4.10459z" id="_XRtVhfirZvbB98UKTQ59R"/>
   <path data-uid="o_en4dfkgcf_17" fill="#d95b2e" d="m42.44689,-34.88628c0.50563,0.30199 1.111,0.43636 1.68312,0.43636c1.14424,0 2.2871,-0.60675 2.89524,-1.68173c0.93922,-1.58199 0.4045,-3.66822 -1.21212,-4.57697c-1.61662,-0.94199 -3.66684,-0.40312 -4.61021,1.21212c-0.94338,1.61524 -0.37264,3.66822 1.24398,4.61021z" id="_AfIp7rS0l5UTuIKbNW6L5"/>
   <path data-uid="o_en4dfkgcf_18" fill="#d95b2e" d="m57.96547,-24.73562c0.87411,0 1.71498,-0.33662 2.38961,-0.97662c1.31048,-1.34511 1.31048,-3.46459 0,-4.77783c-1.31463,-1.31325 -3.46736,-1.31325 -4.74459,0c-1.34788,1.31325 -1.34788,3.46459 0,4.77783c0.64,0.64 1.51411,0.97662 2.35498,0.97662z" id="_HkN08e0cJSHuvtrBZcai5"/>
  </g>
 </g>
</svg>
